<svg xmlns="http://www.w3.org/2000/svg" xmlns:xlink="http://www.w3.org/1999/xlink" xmlns:inkscape="http://www.inkscape.org/namespaces/inkscape" version="1.1" width="1080" height="1080" viewBox="0 0 1080 1080">
<path d="M921.11 706.72C920.97 706.8 920.8 706.74 920.73 706.6 827.82 520.83 734.98 334.39 642.22 147.29 639.31 141.41 635 135.14 629.3 128.48 607.06 102.5 573.37 93.48 540.8 102.8 535.3 104.38 526.65 108.15 514.84 114.11 439.73 152.07 370.43 187.26 306.94 219.68 306.81 219.75 304.76 220.86 300.8 223.03 299.63 223.67 298.39 222.29 299.16 221.2L300.52 219.27C300.81 218.86 301.14 218.49 301.51 218.14 308.35 211.81 369.53 155.2 485.06 48.31 492.09 41.81 498.23 36.96 503.5 33.76 519.99 23.75 537.89 19.79 557.2 21.87 576.93 24 593.5 32.23 606.91 46.56 629.86 71.08 662.16 106.13 703.79 151.71 754.41 207.15 858.93 321.98 1017.35 496.2 1027.69 507.56 1036.08 520.96 1039.38 535.63 1039.83 537.62 1040.15 540.38 1040.34 543.92 1041.08 557.37 1041.25 566.38 1040.85 570.97 1039.07 591.54 1027.33 610.06 1012.09 624.1 973.77 659.4 945.19 685.73 926.36 703.1 924.91 704.45 923.16 705.65 921.11 706.72Z" fill="#ffffff"/>
<path d="M252.14 526.13C252.07 526.28 252.14 526.47 252.3 526.52 254.01 527.09 255.82 527.51 257.75 527.76 265.18 528.75 272.26 529.76 278.99 530.79 314.02 536.16 352.47 549.69 373.88 579.78 401.21 618.21 393.89 670.67 360.05 701.81 353.26 708.06 344.8 713.85 334.67 719.17 310.52 731.87 283.36 737.36 256.23 737.64 186.51 738.37 116.4 738.38 48.16 738.62 47.9 738.62 47.67 738.46 47.59 738.21 46.9 736.18 45.8 732.86 46.45 730.4 46.53 730.08 46.72 729.79 46.99 729.59 48.2 728.66 49.58 728.07 51.12 727.84 57.65 726.87 63.09 725.99 67.43 725.19 78.35 723.18 84.8 716.8 86.78 706.04 87.98 699.55 88.36 690.94 88.36 683.3 88.36 522.66 88.34 425.14 88.31 390.75 88.3 383.74 87.53 375.81 85.98 366.97 84.32 357.53 79.73 352.01 70.69 349.83 64.54 348.35 57.57 347.16 49.79 346.25 48.02 346.05 46.31 344.82 46.37 342.59 46.45 339.76 46.75 337.39 47.27 335.49 47.32 335.32 47.47 335.2 47.65 335.2 114.42 335.19 175.45 335.41 230.75 335.85 237.7 335.9 246.64 336.5 257.57 337.65 305.03 342.62 358.84 366.36 360.89 421.81 361.78 445.81 352.96 465.98 336.1 483.35 327.89 491.81 318.74 498.98 308.64 504.87 292.43 514.32 273.53 519.97 254.44 524.19 253.06 524.5 252.74 524.94 252.14 526.13M178.79 519.19C178.79 522.16 181.05 523.56 183.99 523.59 194.02 523.69 203.2 523.68 211.51 523.55 226.32 523.32 238.26 518.52 247.33 509.16 253.19 503.12 258.12 493.96 262.13 481.68 272.04 451.29 271.44 418.9 264.28 387.7 256.86 355.34 230.11 339.72 198.05 347.9 191.49 349.57 185.59 353.33 183.4 359.37 181.13 365.64 179.98 372.43 179.95 379.75 179.89 400.78 179.86 421.78 179.87 442.75 179.87 445.45 179.73 447.85 179.45 449.95 179.05 452.92 178.85 455.3 178.85 457.1 178.83 488.79 178.81 509.49 178.79 519.19M184.76 534.56C180.36 534.63 178.76 537.17 178.77 541 178.87 577.02 178.89 616.44 178.82 659.26 178.8 672.91 178.86 682.08 178.99 686.75 179.22 694.65 179.83 701.23 180.82 706.49 182.25 714.12 185.94 719.42 191.88 722.39 194.94 723.92 201.49 724.86 211.53 725.21 220.5 725.52 228.9 725.19 236.74 724.22 258.92 721.46 275.38 708.47 284.59 688.36 295.02 665.6 299.03 641.76 296.64 616.83 293.43 583.5 282.6 553.5 248.63 541.25 238.97 537.77 227.07 536.31 216.49 535.86 195.84 534.99 185.27 534.55 184.76 534.56Z" fill="#ffffff"/>
<path d="M715.65 464.57C713.7 463.67 709.91 461.27 709.06 458.68 707.25 453.15 702.49 437.67 694.77 412.24 691.27 400.71 687.21 391.3 682.6 384 670.59 364.99 651.67 352.69 629.38 349.89 627.65 349.68 622.06 349.49 612.61 349.32 599.8 349.1 587.53 349.12 575.81 349.37 566.09 349.58 559.69 353.28 556.6 360.46 555.39 363.27 554.64 368.69 554.35 376.73 553.99 386.64 553.8 392.15 553.79 393.25 553.43 430.64 553.37 474.73 553.6 525.5 553.63 532.46 554.96 533.31 561.74 532.96 569.34 532.57 576.64 532.05 583.64 531.39 602.09 529.66 615.34 520.4 623.39 503.59 629.54 490.75 635.49 477.06 641.25 462.53 642.03 460.58 644.35 458.19 646.67 457.83 652.18 456.98 653.6 462.92 653.61 467.1 653.7 501.25 653.73 550.8 653.7 615.75 653.7 617.62 652.77 619.15 650.86 619.54 647.6 620.21 644.34 617.34 642.71 614.63 641.68 612.91 641.07 611.79 640.89 611.27 633.62 590.66 629.87 580.06 629.64 579.46 620.54 555.59 600.36 544.76 575.5 543.74 572.97 543.63 567.88 543.59 560.25 543.62 556.78 543.63 553.89 544.53 553.86 548.38 553.77 560.58 553.93 607.74 554.32 689.87 554.34 693.18 555.14 697.73 556.71 703.51 559.69 714.45 565.92 721.48 576.78 723.26 582.21 724.15 592 725.19 606.17 726.38 611.39 726.82 614.63 727.83 614.04 733.53 613.72 736.58 611.96 738.11 608.75 738.1 529.16 738.08 468.07 738.08 425.5 738.11 421.95 738.11 420.19 735.25 421.94 732.16 423.47 729.45 426 727.8 429.53 727.23 443.61 724.94 457.41 724.44 460.94 708.79 462.71 700.94 463.62 692.01 463.67 682 464 608.62 464.14 521.64 464.11 421.07 464.1 404.86 463.94 394.05 463.62 388.63 463.14 380.66 462.34 373.38 461.22 366.78 459.9 358.97 455.73 353.64 448.71 350.81 447.16 350.19 444.5 349.53 440.71 348.82 434.87 347.73 429.58 346.86 424.84 346.19 424.64 346.16 424.44 346.11 424.25 346.03 421.8 345.03 420.77 343 421.14 339.94 421.63 335.99 423.55 335.75 427.4 335.75 586.47 335.82 682.42 335.79 715.26 335.67 723.38 335.64 722.7 340.9 722.5 347.67 722.11 361.31 721.19 398.21 719.75 458.36 719.74 458.69 719.65 459.02 719.48 459.31L716.56 464.28C716.37 464.59 715.98 464.72 715.65 464.57Z" fill="#ffffff"/>
<path d="M504.39 847.04C504.5 847.26 504.35 847.52 504.11 847.52H468.63C468.35 847.52 468.1 847.37 467.96 847.12L463.11 838.26C462.96 837.99 462.68 837.82 462.37 837.82H427.98C427.57 837.82 427.19 838.05 426.99 838.41L421.81 847.78C421.29 848.71 420.04 848.93 419.24 848.22L419.16 848.16C418.32 847.48 418.11 846.28 418.66 845.34L462.38 770.94C462.46 770.8 462.67 770.8 462.74 770.94L504.39 847.04M460.36 834.06C460.66 834.06 460.85 833.74 460.71 833.47L446.51 806.3C446.37 806.02 445.97 806.01 445.81 806.28L429.84 833.46C429.69 833.72 429.88 834.06 430.19 834.06H460.36Z" fill="#ffffff"/>
<path d="M733.23 847.06C733.34 847.28 733.19 847.54 732.95 847.54H697.45C697.17 847.54 696.92 847.39 696.78 847.14L691.93 838.28C691.78 838.01 691.49 837.84 691.19 837.84H656.78C656.36 837.84 655.98 838.07 655.79 838.43L650.6 847.81C650.09 848.74 648.83 848.96 648.03 848.25L647.95 848.19C647.11 847.5 646.9 846.31 647.45 845.37L691.19 770.92C691.27 770.78 691.47 770.78 691.55 770.92L733.23 847.06M689.19 834.06C689.48 834.06 689.67 833.75 689.53 833.49L675.32 806.28C675.17 806.01 674.79 806 674.63 806.27L658.65 833.47C658.49 833.73 658.68 834.06 658.98 834.06H689.19Z" fill="#ffffff"/>
<path d="M228.1 844.87C238.26 846.42 249.72 841.91 256.7 834.49 259.3 831.72 261.52 828.67 263.35 825.35 263.84 824.46 264.86 823.99 265.85 824.2L265.99 824.23C266.87 824.42 267.38 825.35 267.06 826.19 266.35 828.06 265.19 830.03 263.6 832.1 258.39 838.9 252.24 843.71 244.13 846.38 227.59 851.81 208.61 846.08 198.74 831.29 181.84 805.98 199.33 773.04 229.36 771.54 241.05 770.95 251.23 774.88 259.9 783.32 261.55 784.94 262.77 786.53 263.54 788.09 264.02 789.04 263.55 790.18 262.56 790.48 261.66 790.75 260.95 790.53 260.42 789.82 252.65 779.39 242 774.39 228.46 774.84 227.75 774.86 227.19 775.45 227.19 776.16V843.82C227.19 844.35 227.58 844.8 228.1 844.87Z" fill="#ffffff"/>
<path d="M396.13 773.1 417.78 847.05C417.85 847.29 417.67 847.53 417.42 847.53H386.34C386.1 847.53 385.88 847.37 385.82 847.13L375.99 810.58C375.93 810.35 375.62 810.31 375.49 810.51L354.53 842.69C354.39 842.9 354.08 842.91 353.94 842.7L332.31 812.27C332.13 812.02 331.73 812.1 331.66 812.4L323.46 846.13C323.11 847.59 321.81 848.62 320.31 848.65H320.19C318.88 848.64 317.93 847.38 318.3 846.12L339.52 772.96C339.58 772.74 339.88 772.69 340.01 772.88L368.24 814.02C368.39 814.24 368.72 814.24 368.87 814.01L395.57 773.01C395.72 772.79 396.05 772.84 396.13 773.1Z" fill="#ffffff"/>
<path d="M76.85 773.66C88.83 773.62 100.78 773.65 112.7 773.74 113.76 773.74 114.62 774.61 114.62 775.67V775.99C114.62 776.86 113.92 777.56 113.05 777.56H93.52C93.39 777.56 93.28 777.67 93.28 777.81V845.65C93.28 845.94 93.06 846.17 92.77 846.19 92.2 846.23 86.89 846.25 76.84 846.25 66.8 846.25 61.49 846.23 60.92 846.19 60.63 846.17 60.41 845.93 60.41 845.65L60.42 777.81C60.42 777.67 60.31 777.56 60.18 777.56L40.65 777.55C39.78 777.55 39.08 776.85 39.08 775.98V775.66C39.08 774.6 39.93 773.74 40.99 773.73 52.92 773.64 64.87 773.62 76.85 773.66Z" fill="#ffffff"/>
<path d="M121.48 845.78V773.72C121.48 773.69 121.51 773.66 121.54 773.66H182.32C183.36 773.66 184.22 774.48 184.25 775.52L184.27 776.02C184.3 776.77 183.7 777.4 182.95 777.4H154.76C154.53 777.4 154.34 777.59 154.34 777.82V793.06C154.34 793.29 154.53 793.48 154.76 793.48H185.61C186.38 793.48 186.99 794.15 186.92 794.92L186.88 795.4C186.78 796.49 185.86 797.31 184.77 797.3L154.72 797.05C154.47 797.04 154.27 797.24 154.27 797.49V842.31C154.27 842.55 154.47 842.75 154.71 842.75L187.03 842.44C188.04 842.43 188.88 843.24 188.91 844.25L188.92 844.42C189 845.41 188.22 846.25 187.23 846.25H121.95C121.69 846.25 121.48 846.04 121.48 845.78Z" fill="#ffffff"/>
<path d="M573.17 774.92C573.49 774.92 573.71 775.26 573.56 775.55 559.68 804.19 551.61 821.27 541.96 843.35 541.88 843.54 542.01 843.75 542.21 843.75L571.14 843.76C571.92 843.76 572.57 844.35 572.64 845.13L572.69 845.61C572.81 846.62 572.02 847.5 571.01 847.5L506.09 847.51C505.84 847.51 505.69 847.26 505.8 847.05 517.45 823.86 528.19 801.15 538.01 778.94 538.1 778.73 537.94 778.5 537.72 778.5L511.1 779.07C510.01 779.09 509.12 778.2 509.14 777.1V776.99C509.16 775.86 510.07 774.96 511.2 774.96L573.17 774.92Z" fill="#ffffff"/>
<path d="M645.96 775.52C632.07 804.18 624 821.27 614.35 843.37 614.27 843.56 614.4 843.77 614.6 843.77H643.54C644.32 843.77 644.98 844.37 645.05 845.15L645.1 845.63C645.22 846.64 644.43 847.52 643.41 847.52L578.45 847.54C578.21 847.54 578.05 847.29 578.16 847.08 589.82 823.87 600.56 801.15 610.38 778.92 610.47 778.71 610.32 778.48 610.09 778.48L583.46 779.05C582.37 779.08 581.47 778.18 581.5 777.08V776.97C581.51 775.85 582.43 774.94 583.56 774.94L645.56 774.89C645.89 774.89 646.1 775.23 645.96 775.52Z" fill="#ffffff"/>
<path d="M726.8 887.68C725.65 889 724.8 890.22 723.42 891.49 665.35 945.02 612.01 994.41 563.4 1039.65 557.92 1044.75 548.41 1050.01 540.69 1052.81 520.08 1060.3 499.58 1060.66 479.17 1053.87 467.16 1049.88 456.23 1043.01 447.75 1033.52 447.17 1032.87 446.55 1031.85 445.88 1030.44 445.74 1030.14 445.74 1029.79 445.9 1029.5 446.61 1028.19 447.38 1027.32 448.19 1026.91 537.2 981.68 627.23 935.8 718.28 889.28 720.23 888.28 722.5 887.05 725.08 885.58 725.66 885.25 726.4 885.39 726.83 885.9 727.25 886.42 727.24 887.17 726.8 887.68Z" fill="#ffffff"/>
</svg>
